<svg width="1080" height="1920" viewBox="0 0 1080 1920" fill="none" xmlns="http://www.w3.org/2000/svg">
      <rect width="1080" height="1920" fill="#edf1f7" />
      <rect x="118" y="72" width="844" height="1776" rx="58" fill="#26324a" />
      <rect x="146" y="112" width="788" height="1696" rx="38" fill="#f7f9fc" />
      <rect x="432" y="88" width="216" height="22" rx="11" fill="#52637f" />
      
      <text x="206" y="230" fill="#27324a" font-family="Avenir Next, Avenir, Trebuchet MS, sans-serif" font-size="56" font-weight="700">Simple entries</text>
      <text x="206" y="292" fill="#4f607f" font-family="Avenir Next, Avenir, Trebuchet MS, sans-serif" font-size="28">Track cycles without accounts.</text>
      <rect x="206" y="402" width="300" height="180" rx="20" fill="#ffffff" stroke="#d8deea" />
      <text x="248" y="480" fill="#4f607f" font-family="Avenir Next, Avenir, Trebuchet MS, sans-serif" font-size="26">Entries</text>
      <text x="248" y="540" fill="#27324a" font-family="Avenir Next, Avenir, Trebuchet MS, sans-serif" font-size="46" font-weight="700">4</text>
      <rect x="574" y="402" width="300" height="180" rx="20" fill="#ffffff" stroke="#d8deea" />
      <text x="616" y="480" fill="#4f607f" font-family="Avenir Next, Avenir, Trebuchet MS, sans-serif" font-size="26">Latest</text>
      <text x="616" y="540" fill="#27324a" font-family="Avenir Next, Avenir, Trebuchet MS, sans-serif" font-size="46" font-weight="700">Today</text>
      <rect x="206" y="704" width="668" height="250" rx="20" fill="#ffffff" stroke="#d8deea" />
      <text x="250" y="786" fill="#27324a" font-family="Avenir Next, Avenir, Trebuchet MS, sans-serif" font-size="36" font-weight="700">Local by design</text>
      <text x="250" y="844" fill="#4f607f" font-family="Avenir Next, Avenir, Trebuchet MS, sans-serif" font-size="26">No signup, ads, hidden tracking, or cloud sync.</text>
      <text x="250" y="900" fill="#4f607f" font-family="Avenir Next, Avenir, Trebuchet MS, sans-serif" font-size="26">Your cycle log remains on your device.</text>
      <rect x="206" y="1080" width="668" height="250" rx="20" fill="#eef2fa" stroke="#cfd7e6" />
      
    <g transform="translate(394 1116) scale(1.042857142857143)">
      <circle cx="140" cy="140" r="132" fill="#edf1f7" />
      <circle cx="140" cy="140" r="104" fill="#ffffff" fill-opacity="0.92" />
      <circle cx="140" cy="140" r="100" stroke="#6d7e96" stroke-width="9" fill="none" />
      <circle cx="140" cy="140" r="16" fill="#6d7e96" />
      <circle cx="220" cy="140" r="13" fill="#4f607f" />
      <circle cx="60" cy="140" r="13" fill="#4f607f" />
      <circle cx="140" cy="60" r="13" fill="#4f607f" />
      <circle cx="140" cy="220" r="13" fill="#4f607f" />
      <path d="M140 140L140 60" stroke="#4f607f" stroke-width="8" stroke-linecap="round" />
      <path d="M140 140L220 140" stroke="#4f607f" stroke-width="8" stroke-linecap="round" />
      <path d="M140 140L98 98" stroke="#4f607f" stroke-width="7" stroke-linecap="round" />
      <path d="M140 140L182 182" stroke="#4f607f" stroke-width="7" stroke-linecap="round" />
      <circle cx="140" cy="140" r="52" stroke="#9aaec7" stroke-width="6" stroke-dasharray="6 10" />
    </g>
    
    </svg>
