<svg width="1920" height="1080" viewBox="0 0 1920 1080" fill="none" xmlns="http://www.w3.org/2000/svg">
      <rect width="1920" height="1080" fill="#edf1f7" />
      <g transform="translate(0 0) scale(1)">
        <rect x="78" y="64" width="1764" height="952" rx="42" fill="#26324a" />
        <rect x="114" y="102" width="1692" height="876" rx="28" fill="#f7f9fc" />
        <rect x="846" y="80" width="228" height="18" rx="9" fill="#52637f" />
        
      <text x="180" y="210" fill="#27324a" font-family="Avenir Next, Avenir, Trebuchet MS, sans-serif" font-size="62" font-weight="700">open-cycle</text>
      <text x="180" y="278" fill="#4f607f" font-family="Avenir Next, Avenir, Trebuchet MS, sans-serif" font-size="30">A quiet private period log for larger screens.</text>
      <rect x="180" y="372" width="440" height="210" rx="20" fill="#ffffff" stroke="#d8deea" />
      <text x="230" y="454" fill="#4f607f" font-family="Avenir Next, Avenir, Trebuchet MS, sans-serif" font-size="28">Entries</text>
      <text x="230" y="530" fill="#27324a" font-family="Avenir Next, Avenir, Trebuchet MS, sans-serif" font-size="64" font-weight="700">4</text>
      <rect x="680" y="372" width="440" height="210" rx="20" fill="#ffffff" stroke="#d8deea" />
      <text x="730" y="454" fill="#4f607f" font-family="Avenir Next, Avenir, Trebuchet MS, sans-serif" font-size="28">Latest entry</text>
      <text x="730" y="530" fill="#27324a" font-family="Avenir Next, Avenir, Trebuchet MS, sans-serif" font-size="64" font-weight="700">Today</text>
      <rect x="1180" y="372" width="440" height="210" rx="20" fill="#eaf1e8" stroke="#9ec29e" />
      <text x="1230" y="454" fill="#245126" font-family="Avenir Next, Avenir, Trebuchet MS, sans-serif" font-size="28">Network</text>
      <text x="1230" y="530" fill="#245126" font-family="Avenir Next, Avenir, Trebuchet MS, sans-serif" font-size="54" font-weight="700">None</text>
      <rect x="180" y="668" width="1440" height="190" rx="22" fill="#ffffff" stroke="#d8deea" />
      <text x="236" y="752" fill="#27324a" font-family="Avenir Next, Avenir, Trebuchet MS, sans-serif" font-size="40" font-weight="700">Your cycle log</text>
      <text x="236" y="812" fill="#4f607f" font-family="Avenir Next, Avenir, Trebuchet MS, sans-serif" font-size="28">Save dates, flow, symptoms, moods, and notes directly on your device.</text>
    
      </g>
    </svg>
